<svg xmlns="http://www.w3.org/2000/svg" width="900" height="448" viewBox="0 0 900 448">
<rect width="100%" height="100%" fill="white"/>
<text x="24" y="32" font-family="sans-serif" font-size="21" font-weight="700">SDL3 anchor-update resources</text>
<text x="24" y="78" font-family="sans-serif" font-size="13">CPU time</text>
<rect x="190" y="62" width="459.2" height="22" fill="#24292f"/>
<text x="705" y="78" font-family="sans-serif" font-size="12">1.69 s</text>
<rect x="190" y="92" width="500.0" height="22" fill="#8c959f"/>
<text x="705" y="108" font-family="sans-serif" font-size="12">1.84 s</text>
<text x="24" y="170" font-family="sans-serif" font-size="13">Peak RSS</text>
<rect x="190" y="154" width="497.1" height="22" fill="#24292f"/>
<text x="705" y="170" font-family="sans-serif" font-size="12">141.00 MiB</text>
<rect x="190" y="184" width="500.0" height="22" fill="#8c959f"/>
<text x="705" y="200" font-family="sans-serif" font-size="12">141.81 MiB</text>
<text x="24" y="262" font-family="sans-serif" font-size="13">Filesystem outputs</text>
<rect x="190" y="246" width="262.3" height="22" fill="#24292f"/>
<text x="705" y="262" font-family="sans-serif" font-size="12">66,704</text>
<rect x="190" y="276" width="500.0" height="22" fill="#8c959f"/>
<text x="705" y="292" font-family="sans-serif" font-size="12">127,136</text>
<text x="24" y="354" font-family="sans-serif" font-size="13">Context switches</text>
<rect x="190" y="338" width="338.2" height="22" fill="#24292f"/>
<text x="705" y="354" font-family="sans-serif" font-size="12">69</text>
<rect x="190" y="368" width="500.0" height="22" fill="#8c959f"/>
<text x="705" y="384" font-family="sans-serif" font-size="12">102</text>
</svg>
